<svg xmlns="http://www.w3.org/2000/svg" viewBox="0 0 500 500">
  <!-- Arsenal FC Logo -->
  <circle cx="250" cy="250" r="240" fill="#EF0107"/>
  <path d="M250 30c121.5 0 220 98.5 220 220s-98.5 220-220 220S30 371.5 30 250 128.5 30 250 30m0-20C117.2 10 10 117.2 10 250s107.2 240 240 240 240-107.2 240-240S382.8 10 250 10z" fill="#063672"/>
  <path d="M250 60c104.9 0 190 85.1 190 190s-85.1 190-190 190S60 354.9 60 250 145.1 60 250 60m0-20c-116 0-210 94-210 210s94 210 210 210 210-94 210-210S366 40 250 40z" fill="#9C824A"/>
  <path d="M250 90c88.4 0 160 71.6 160 160s-71.6 160-160 160S90 338.4 90 250 161.6 90 250 90" fill="#FFFFFF"/>
  <path d="M250 120c71.8 0 130 58.2 130 130s-58.2 130-130 130S120 321.8 120 250 178.2 120 250 120" fill="#EF0107"/>
  <path d="M250 150c55.2 0 100 44.8 100 100s-44.8 100-100 100-100-44.8-100-100 44.8-100 100-100" fill="#FFFFFF"/>
  <path d="M250 180c38.7 0 70 31.3 70 70s-31.3 70-70 70-70-31.3-70-70 31.3-70 70-70" fill="#EF0107"/>
  <!-- Cannon -->
  <path d="M180 270h140v20H180z" fill="#9C824A"/>
  <path d="M160 260h30v40h-30zM330 260h-30v40h30z" fill="#063672"/>
</svg>
