<?xml version="1.0" encoding="UTF-8"?>
<svg width="120" height="120" viewBox="0 0 120 120" fill="none" xmlns="http://www.w3.org/2000/svg">
    <!-- Background Circle -->
    <circle cx="60" cy="60" r="58" fill="#FF9933" stroke="#138808" stroke-width="4"/>
    
    <!-- Ashoka Chakra -->
    <circle cx="60" cy="60" r="20" fill="#000080"/>
    <circle cx="60" cy="60" r="18" stroke="#FFFFFF" stroke-width="2" fill="none"/>
    
    <!-- 24 spokes -->
    <g stroke="#FFFFFF" stroke-width="1">
        <path d="M60 40V80" />
        <path d="M40 60H80" />
        <path d="M45.86 45.86L74.14 74.14" />
        <path d="M74.14 45.86L45.86 74.14" />
        <path d="M60 42L60 78" transform="rotate(30 60 60)" />
        <path d="M60 42L60 78" transform="rotate(60 60 60)" />
        <path d="M60 42L60 78" transform="rotate(90 60 60)" />
        <path d="M60 42L60 78" transform="rotate(120 60 60)" />
        <path d="M60 42L60 78" transform="rotate(150 60 60)" />
    </g>
    
    <!-- BCCI Logo Text -->
    <path d="M20 85H100V95H20V85Z" fill="#000080"/>
    <text x="60" y="92" font-family="Arial" font-size="8" fill="#FFFFFF" text-anchor="middle">TEAM INDIA</text>
    
    <!-- Stars (representing World Cup wins) -->
    <g fill="#138808">
        <path d="M40 25L42 30L37 28L40 25Z"/>
        <path d="M80 25L82 30L77 28L80 25Z"/>
    </g>
    
    <!-- Cricket Ball -->
    <circle cx="60" cy="100" r="8" fill="#FFFFFF"/>
    <path d="M55 100H65M60 95V105" stroke="#000080" stroke-width="1.5"/>
    <path d="M57 97L63 103M63 97L57 103" stroke="#000080" stroke-width="1.5"/>
</svg> 