<?xml version="1.0" encoding="UTF-8"?>
<svg width="120" height="120" viewBox="0 0 120 120" fill="none" xmlns="http://www.w3.org/2000/svg">
    <!-- Background Circle -->
    <circle cx="60" cy="60" r="58" fill="#000000" stroke="#FFFFFF" stroke-width="4"/>
    
    <!-- Shield Logo -->
    <path d="M40 35H80V75C80 85 60 95 60 95C60 95 40 85 40 75V35Z" fill="#FFFFFF"/>
    
    <!-- Basketball -->
    <circle cx="60" cy="55" r="15" fill="#000000"/>
    <path d="M50 55L70 55M60 45L60 65" stroke="#FFFFFF" stroke-width="2"/>
    <path d="M53 48L67 62M67 48L53 62" stroke="#FFFFFF" stroke-width="2"/>
    
    <!-- Net Pattern -->
    <path d="M45 65C45 65 60 75 60 75C60 75 75 65 75 65" stroke="#000000" stroke-width="2" fill="none"/>
    <path d="M45 70C45 70 60 80 60 80C60 80 75 70 75 70" stroke="#000000" stroke-width="2" fill="none"/>
    
    <!-- Team Name -->
    <path d="M20 85H100V95H20V85Z" fill="#FFFFFF"/>
    <text x="60" y="92" font-family="Arial" font-size="10" fill="#000000" text-anchor="middle">BROOKLYN NETS</text>
    
    <!-- Decorative Elements -->
    <g stroke="#FFFFFF" stroke-width="1" opacity="0.5">
        <line x1="30" y1="30" x2="40" y2="40"/>
        <line x1="90" y1="30" x2="80" y2="40"/>
        <line x1="30" y1="90" x2="40" y2="80"/>
        <line x1="90" y1="90" x2="80" y2="80"/>
    </g>
</svg> 