<?xml version="1.0" encoding="UTF-8"?>
<svg width="120" height="120" viewBox="0 0 120 120" fill="none" xmlns="http://www.w3.org/2000/svg">
    <!-- Background Circle -->
    <circle cx="60" cy="60" r="58" fill="#006838" stroke="#FFD700" stroke-width="4"/>
    
    <!-- Pirate Hat -->
    <path d="M35 45C35 45 45 35 60 35C75 35 85 45 85 45L60 60L35 45Z" fill="#000000"/>
    <path d="M40 42L80 42" stroke="#FFD700" stroke-width="3"/>
    
    <!-- Skull Symbol -->
    <circle cx="60" cy="50" r="8" fill="#FFFFFF"/>
    <circle cx="56" cy="48" r="2" fill="#000000"/>
    <circle cx="64" cy="48" r="2" fill="#000000"/>
    <path d="M56 54C56 54 60 56 60 56C60 56 64 54 64 54" stroke="#000000" stroke-width="2"/>
    
    <!-- Crossed Swords -->
    <path d="M45 65L55 75M75 65L65 75" stroke="#FFD700" stroke-width="3"/>
    <path d="M45 75L55 65M75 75L65 65" stroke="#FFD700" stroke-width="3"/>
    
    <!-- Team Name -->
    <path d="M20 95H100V105H20V95Z" fill="#000000"/>
    <text x="60" y="102" font-family="Arial" font-size="9" fill="#FFD700" text-anchor="middle">PATNA PIRATES</text>
    
    <!-- Stars (representing achievements) -->
    <g fill="#FFD700">
        <path d="M40 25L42 30L37 28L40 25Z"/>
        <path d="M60 20L62 25L57 23L60 20Z"/>
        <path d="M80 25L82 30L77 28L80 25Z"/>
    </g>
    
    <!-- Decorative Elements -->
    <path d="M30 65C30 65 45 85 60 85C75 85 90 65 90 65" stroke="#FFD700" stroke-width="1" opacity="0.5" fill="none"/>
</svg> 