<?xml version="1.0" encoding="UTF-8"?>
<svg width="120" height="120" viewBox="0 0 120 120" fill="none" xmlns="http://www.w3.org/2000/svg">
    <!-- Background Circle -->
    <circle cx="60" cy="60" r="58" fill="#F15A22" stroke="#000000" stroke-width="4"/>
    
    <!-- Warrior Helmet -->
    <path d="M40 40L60 30L80 40L75 45H45L40 40Z" fill="#000000"/>
    <path d="M45 45H75L60 65L45 45Z" fill="#000000"/>
    
    <!-- Helmet Details -->
    <path d="M50 42L70 42" stroke="#F15A22" stroke-width="2"/>
    <path d="M55 48L65 48" stroke="#F15A22" stroke-width="2"/>
    
    <!-- Shield -->
    <path d="M45 65C45 65 60 85 60 85C60 85 75 65 75 65L60 90L45 65Z" fill="#000000"/>
    <path d="M50 70C50 70 60 85 60 85C60 85 70 70 70 70" stroke="#F15A22" stroke-width="2"/>
    
    <!-- Spears -->
    <path d="M40 55L50 65M80 55L70 65" stroke="#F15A22" stroke-width="3"/>
    
    <!-- Team Name -->
    <path d="M20 95H100V105H20V95Z" fill="#000000"/>
    <text x="60" y="102" font-family="Arial" font-size="9" fill="#F15A22" text-anchor="middle">PUNERI PALTAN</text>
    
    <!-- Stars (representing achievements) -->
    <g fill="#000000">
        <path d="M45 25L47 30L42 28L45 25Z"/>
        <path d="M75 25L77 30L72 28L75 25Z"/>
    </g>
    
    <!-- Decorative Elements -->
    <path d="M30 65C30 65 45 85 60 85C75 85 90 65 90 65" stroke="#000000" stroke-width="1" opacity="0.5" fill="none"/>
</svg> 