<?xml version="1.0" encoding="UTF-8"?>
<svg width="120" height="120" viewBox="0 0 120 120" fill="none" xmlns="http://www.w3.org/2000/svg">
    <!-- Background Circle -->
    <circle cx="60" cy="60" r="58" fill="#FF6B08" stroke="#000000" stroke-width="4"/>
    
    <!-- Warrior Symbol -->
    <path d="M45 40L60 30L75 40L70 45H50L45 40Z" fill="#000000"/>
    <path d="M50 45H70L60 70L50 45Z" fill="#000000"/>
    
    <!-- Sword -->
    <path d="M55 50L65 60M65 50L55 60" stroke="#FFFFFF" stroke-width="3"/>
    <path d="M60 45V65" stroke="#FFFFFF" stroke-width="3"/>
    
    <!-- Shield -->
    <path d="M45 65C45 65 60 75 60 75C60 75 75 65 75 65L60 85L45 65Z" fill="#000000"/>
    <path d="M50 68C50 68 60 75 60 75C60 75 70 68 70 68" stroke="#FFFFFF" stroke-width="2"/>
    
    <!-- Team Name -->
    <path d="M20 95H100V105H20V95Z" fill="#000000"/>
    <text x="60" y="102" font-family="Arial" font-size="9" fill="#FF6B08" text-anchor="middle">UP YODDHAS</text>
    
    <!-- Stars (representing achievements) -->
    <g fill="#000000">
        <path d="M45 25L47 30L42 28L45 25Z"/>
        <path d="M75 25L77 30L72 28L75 25Z"/>
    </g>
    
    <!-- Decorative Elements -->
    <path d="M30 65C30 65 45 85 60 85C75 85 90 65 90 65" stroke="#000000" stroke-width="1" opacity="0.5" fill="none"/>
</svg> 